<?xml version="1.0" standalone="no"?><svg xmlns:xlink="http://www.w3.org/1999/xlink" xmlns="http://www.w3.org/2000/svg" viewBox="0 0 1000 562.5027423105612" preserveAspectRatio="xMaxYMax slice"><g transform="scale(0.8775393795796587)"><rect x="0" y="0" width="1139.5555555555557" height="641" fill="#ffffff"/><rect x="0" y="0" width="71.22222222222223" height="71.22222222222223" fill="#ffffff"/><circle cx="17.805" cy="17.805" r="17.805" fill="#FF6500"/><circle cx="53.415" cy="17.805" r="17.805" fill="#383838"/><circle cx="17.805" cy="53.415" r="17.805" fill="#FF6500"/><circle cx="53.415" cy="53.415" r="17.805" fill="#383838"/><circle cx="106.83" cy="35.61" r="35.61" fill="#383838"/><rect x="142.44444444444446" y="0" width="71.22222222222223" height="71.22222222222223" fill="#ffffff"/><circle cx="160.245" cy="17.805" r="17.805" fill="#383838"/><circle cx="195.865" cy="17.805" r="17.805" fill="#383838"/><circle cx="160.245" cy="53.415" r="17.805" fill="#383838"/><circle cx="195.865" cy="53.415" r="17.805" fill="#FF6500"/><circle cx="249.27999999999997" cy="35.61" r="35.61" fill="#FF6500"/><rect x="284.8888888888889" y="0" width="71.22222222222223" height="71.22222222222223" fill="#ffffff"/><circle cx="302.695" cy="17.805" r="17.805" fill="#383838"/><circle cx="338.305" cy="17.805" r="17.805" fill="#FF6500"/><circle cx="302.695" cy="53.415" r="17.805" fill="#383838"/><circle cx="338.305" cy="53.415" r="17.805" fill="#383838"/><rect x="356.11111111111114" y="0" width="71.22222222222223" height="71.22222222222223" fill="#ffffff"/><circle cx="373.915" cy="17.805" r="17.805" fill="#383838"/><circle cx="409.52500000000003" cy="17.805" r="17.805" fill="#383838"/><circle cx="373.915" cy="53.415" r="17.805" fill="#383838"/><circle cx="409.52500000000003" cy="53.415" r="17.805" fill="#FF6500"/><circle cx="462.94" cy="35.61" r="35.61" fill="#FF6500"/><rect x="498.5555555555556" y="0" width="71.22222222222223" height="71.22222222222223" fill="#ffffff"/><circle cx="516.365" cy="17.805" r="17.805" fill="#FF6500"/><circle cx="551.9749999999999" cy="17.805" r="17.805" fill="#383838"/><circle cx="516.365" cy="53.415" r="17.805" fill="#FF6500"/><circle cx="551.9749999999999" cy="53.415" r="17.805" fill="#383838"/><rect x="569.7777777777778" y="0" width="71.22222222222223" height="71.22222222222223" fill="#ffffff"/><circle cx="587.5849999999999" cy="17.805" r="17.805" fill="#383838"/><circle cx="623.1949999999999" cy="17.805" r="17.805" fill="#383838"/><circle cx="587.5849999999999" cy="53.415" r="17.805" fill="#FF6500"/><circle cx="623.1949999999999" cy="53.415" r="17.805" fill="#383838"/><rect x="641" y="0" width="71.22222222222223" height="71.22222222222223" fill="#ffffff"/><circle cx="658.805" cy="17.805" r="17.805" fill="#383838"/><circle cx="694.415" cy="17.805" r="17.805" fill="#FF6500"/><circle cx="658.805" cy="53.415" r="17.805" fill="#FF6500"/><circle cx="694.415" cy="53.415" r="17.805" fill="#383838"/><circle cx="747.83" cy="35.61" r="35.61" fill="#383838"/><circle cx="819.0500000000001" cy="35.61" r="35.61" fill="#FF6500"/><rect x="854.6666666666667" y="0" width="71.22222222222223" height="71.22222222222223" fill="#ffffff"/><circle cx="872.4749999999999" cy="17.805" r="17.805" fill="#FF6500"/><circle cx="908.0849999999999" cy="17.805" r="17.805" fill="#FF6500"/><circle cx="872.4749999999999" cy="53.415" r="17.805" fill="#FF6500"/><circle cx="908.0849999999999" cy="53.415" r="17.805" fill="#FF6500"/><circle cx="961.5" cy="35.61" r="35.61" fill="#383838"/><rect x="997.1111111111112" y="0" width="71.22222222222223" height="71.22222222222223" fill="#ffffff"/><circle cx="1014.915" cy="17.805" r="17.805" fill="#383838"/><circle cx="1050.525" cy="17.805" r="17.805" fill="#FF6500"/><circle cx="1014.915" cy="53.415" r="17.805" fill="#383838"/><circle cx="1050.525" cy="53.415" r="17.805" fill="#FF6500"/><circle cx="1103.9399999999998" cy="35.61" r="35.61" fill="#383838"/><rect x="0" y="71.22222222222223" width="71.22222222222223" height="71.22222222222223" fill="#ffffff"/><circle cx="17.805" cy="89.025" r="17.805" fill="#383838"/><circle cx="53.415" cy="89.025" r="17.805" fill="#383838"/><circle cx="17.805" cy="124.63499999999999" r="17.805" fill="#FF6500"/><circle cx="53.415" cy="124.63499999999999" r="17.805" fill="#FF6500"/><rect x="71.22222222222223" y="71.22222222222223" width="71.22222222222223" height="71.22222222222223" fill="#ffffff"/><circle cx="89.025" cy="89.025" r="17.805" fill="#383838"/><circle cx="124.63499999999999" cy="89.025" r="17.805" fill="#FF6500"/><circle cx="89.025" cy="124.63499999999999" r="17.805" fill="#383838"/><circle cx="124.63499999999999" cy="124.63499999999999" r="17.805" fill="#383838"/><rect x="142.44444444444446" y="71.22222222222223" width="71.22222222222223" height="71.22222222222223" fill="#ffffff"/><circle cx="160.245" cy="89.025" r="17.805" fill="#383838"/><circle cx="195.865" cy="89.025" r="17.805" fill="#383838"/><circle cx="160.245" cy="124.63499999999999" r="17.805" fill="#FF6500"/><circle cx="195.865" cy="124.63499999999999" r="17.805" fill="#FF6500"/><circle cx="249.27999999999997" cy="106.83" r="35.61" fill="#383838"/><circle cx="320.5" cy="106.83" r="35.61" fill="#FF6500"/><rect x="356.11111111111114" y="71.22222222222223" width="71.22222222222223" height="71.22222222222223" fill="#ffffff"/><circle cx="373.915" cy="89.025" r="17.805" fill="#FF6500"/><circle cx="409.52500000000003" cy="89.025" r="17.805" fill="#383838"/><circle cx="373.915" cy="124.63499999999999" r="17.805" fill="#FF6500"/><circle cx="409.52500000000003" cy="124.63499999999999" r="17.805" fill="#FF6500"/><rect x="427.33333333333337" y="71.22222222222223" width="71.22222222222223" height="71.22222222222223" fill="#ffffff"/><circle cx="445.135" cy="89.025" r="17.805" fill="#FF6500"/><circle cx="480.745" cy="89.025" r="17.805" fill="#383838"/><circle cx="445.135" cy="124.63499999999999" r="17.805" fill="#FF6500"/><circle cx="480.745" cy="124.63499999999999" r="17.805" fill="#FF6500"/><rect x="498.5555555555556" y="71.22222222222223" width="71.22222222222223" height="71.22222222222223" fill="#ffffff"/><circle cx="516.365" cy="89.025" r="17.805" fill="#383838"/><circle cx="551.9749999999999" cy="89.025" r="17.805" fill="#FF6500"/><circle cx="516.365" cy="124.63499999999999" r="17.805" fill="#FF6500"/><circle cx="551.9749999999999" cy="124.63499999999999" r="17.805" fill="#383838"/><rect x="569.7777777777778" y="71.22222222222223" width="71.22222222222223" height="71.22222222222223" fill="#ffffff"/><circle cx="587.5849999999999" cy="89.025" r="17.805" fill="#FF6500"/><circle cx="623.1949999999999" cy="89.025" r="17.805" fill="#FF6500"/><circle cx="587.5849999999999" cy="124.63499999999999" r="17.805" fill="#FF6500"/><circle cx="623.1949999999999" cy="124.63499999999999" r="17.805" fill="#FF6500"/><rect x="641" y="71.22222222222223" width="71.22222222222223" height="71.22222222222223" fill="#ffffff"/><circle cx="658.805" cy="89.025" r="17.805" fill="#383838"/><circle cx="694.415" cy="89.025" r="17.805" fill="#383838"/><circle cx="658.805" cy="124.63499999999999" r="17.805" fill="#383838"/><circle cx="694.415" cy="124.63499999999999" r="17.805" fill="#FF6500"/><circle cx="747.83" cy="106.83" r="35.61" fill="#FF6500"/><circle cx="819.0500000000001" cy="106.83" r="35.61" fill="#FF6500"/><rect x="854.6666666666667" y="71.22222222222223" width="71.22222222222223" height="71.22222222222223" fill="#ffffff"/><circle cx="872.4749999999999" cy="89.025" r="17.805" fill="#FF6500"/><circle cx="908.0849999999999" cy="89.025" r="17.805" fill="#383838"/><circle cx="872.4749999999999" cy="124.63499999999999" r="17.805" fill="#FF6500"/><circle cx="908.0849999999999" cy="124.63499999999999" r="17.805" fill="#383838"/><circle cx="961.5" cy="106.83" r="35.61" fill="#383838"/><rect x="997.1111111111112" y="71.22222222222223" width="71.22222222222223" height="71.22222222222223" fill="#ffffff"/><circle cx="1014.915" cy="89.025" r="17.805" fill="#383838"/><circle cx="1050.525" cy="89.025" r="17.805" fill="#FF6500"/><circle cx="1014.915" cy="124.63499999999999" r="17.805" fill="#383838"/><circle cx="1050.525" cy="124.63499999999999" r="17.805" fill="#FF6500"/><rect x="1068.3333333333335" y="71.22222222222223" width="71.22222222222223" height="71.22222222222223" fill="#ffffff"/><circle cx="1086.135" cy="89.025" r="17.805" fill="#383838"/><circle cx="1121.7450000000001" cy="89.025" r="17.805" fill="#FF6500"/><circle cx="1086.135" cy="124.63499999999999" r="17.805" fill="#383838"/><circle cx="1121.7450000000001" cy="124.63499999999999" r="17.805" fill="#FF6500"/><circle cx="35.61" cy="178.05" r="35.61" fill="#383838"/><circle cx="106.83" cy="178.05" r="35.61" fill="#FF6500"/><rect x="142.44444444444446" y="142.44444444444446" width="71.22222222222223" height="71.22222222222223" fill="#ffffff"/><circle cx="160.245" cy="160.245" r="17.805" fill="#383838"/><circle cx="195.865" cy="160.245" r="17.805" fill="#383838"/><circle cx="160.245" cy="195.865" r="17.805" fill="#FF6500"/><circle cx="195.865" cy="195.865" r="17.805" fill="#FF6500"/><rect x="213.66666666666669" y="142.44444444444446" width="71.22222222222223" height="71.22222222222223" fill="#ffffff"/><circle cx="231.475" cy="160.245" r="17.805" fill="#FF6500"/><circle cx="267.085" cy="160.245" r="17.805" fill="#383838"/><circle cx="231.475" cy="195.865" r="17.805" fill="#383838"/><circle cx="267.085" cy="195.865" r="17.805" fill="#383838"/><circle cx="320.5" cy="178.05" r="35.61" fill="#383838"/><rect x="356.11111111111114" y="142.44444444444446" width="71.22222222222223" height="71.22222222222223" fill="#ffffff"/><circle cx="373.915" cy="160.245" r="17.805" fill="#FF6500"/><circle cx="409.52500000000003" cy="160.245" r="17.805" fill="#383838"/><circle cx="373.915" cy="195.865" r="17.805" fill="#FF6500"/><circle cx="409.52500000000003" cy="195.865" r="17.805" fill="#FF6500"/><rect x="427.33333333333337" y="142.44444444444446" width="71.22222222222223" height="71.22222222222223" fill="#ffffff"/><circle cx="445.135" cy="160.245" r="17.805" fill="#FF6500"/><circle cx="480.745" cy="160.245" r="17.805" fill="#383838"/><circle cx="445.135" cy="195.865" r="17.805" fill="#FF6500"/><circle cx="480.745" cy="195.865" r="17.805" fill="#383838"/><circle cx="534.17" cy="178.05" r="35.61" fill="#FF6500"/><rect x="569.7777777777778" y="142.44444444444446" width="71.22222222222223" height="71.22222222222223" fill="#ffffff"/><circle cx="587.5849999999999" cy="160.245" r="17.805" fill="#FF6500"/><circle cx="623.1949999999999" cy="160.245" r="17.805" fill="#FF6500"/><circle cx="587.5849999999999" cy="195.865" r="17.805" fill="#FF6500"/><circle cx="623.1949999999999" cy="195.865" r="17.805" fill="#383838"/><circle cx="676.61" cy="178.05" r="35.61" fill="#383838"/><rect x="712.2222222222223" y="142.44444444444446" width="71.22222222222223" height="71.22222222222223" fill="#ffffff"/><circle cx="730.025" cy="160.245" r="17.805" fill="#FF6500"/><circle cx="765.635" cy="160.245" r="17.805" fill="#FF6500"/><circle cx="730.025" cy="195.865" r="17.805" fill="#383838"/><circle cx="765.635" cy="195.865" r="17.805" fill="#383838"/><circle cx="819.0500000000001" cy="178.05" r="35.61" fill="#383838"/><circle cx="890.28" cy="178.05" r="35.61" fill="#FF6500"/><rect x="925.8888888888889" y="142.44444444444446" width="71.22222222222223" height="71.22222222222223" fill="#ffffff"/><circle cx="943.6949999999999" cy="160.245" r="17.805" fill="#FF6500"/><circle cx="979.305" cy="160.245" r="17.805" fill="#FF6500"/><circle cx="943.6949999999999" cy="195.865" r="17.805" fill="#383838"/><circle cx="979.305" cy="195.865" r="17.805" fill="#383838"/><circle cx="1032.72" cy="178.05" r="35.61" fill="#FF6500"/><rect x="1068.3333333333335" y="142.44444444444446" width="71.22222222222223" height="71.22222222222223" fill="#ffffff"/><circle cx="1086.135" cy="160.245" r="17.805" fill="#383838"/><circle cx="1121.7450000000001" cy="160.245" r="17.805" fill="#FF6500"/><circle cx="1086.135" cy="195.865" r="17.805" fill="#383838"/><circle cx="1121.7450000000001" cy="195.865" r="17.805" fill="#FF6500"/><circle cx="35.61" cy="249.27999999999997" r="35.61" fill="#383838"/><circle cx="106.83" cy="249.27999999999997" r="35.61" fill="#383838"/><rect x="142.44444444444446" y="213.66666666666669" width="71.22222222222223" height="71.22222222222223" fill="#ffffff"/><circle cx="160.245" cy="231.475" r="17.805" fill="#383838"/><circle cx="195.865" cy="231.475" r="17.805" fill="#383838"/><circle cx="160.245" cy="267.085" r="17.805" fill="#383838"/><circle cx="195.865" cy="267.085" r="17.805" fill="#FF6500"/><circle cx="249.27999999999997" cy="249.27999999999997" r="35.61" fill="#383838"/><circle cx="320.5" cy="249.27999999999997" r="35.61" fill="#383838"/><circle cx="391.72" cy="249.27999999999997" r="35.61" fill="#383838"/><rect x="427.33333333333337" y="213.66666666666669" width="71.22222222222223" height="71.22222222222223" fill="#ffffff"/><circle cx="445.135" cy="231.475" r="17.805" fill="#FF6500"/><circle cx="480.745" cy="231.475" r="17.805" fill="#FF6500"/><circle cx="445.135" cy="267.085" r="17.805" fill="#383838"/><circle cx="480.745" cy="267.085" r="17.805" fill="#383838"/><circle cx="534.17" cy="249.27999999999997" r="35.61" fill="#FF6500"/><rect x="569.7777777777778" y="213.66666666666669" width="71.22222222222223" height="71.22222222222223" fill="#ffffff"/><circle cx="587.5849999999999" cy="231.475" r="17.805" fill="#FF6500"/><circle cx="623.1949999999999" cy="231.475" r="17.805" fill="#FF6500"/><circle cx="587.5849999999999" cy="267.085" r="17.805" fill="#FF6500"/><circle cx="623.1949999999999" cy="267.085" r="17.805" fill="#383838"/><circle cx="676.61" cy="249.27999999999997" r="35.61" fill="#383838"/><circle cx="747.83" cy="249.27999999999997" r="35.61" fill="#383838"/><rect x="783.4444444444446" y="213.66666666666669" width="71.22222222222223" height="71.22222222222223" fill="#ffffff"/><circle cx="801.245" cy="231.475" r="17.805" fill="#FF6500"/><circle cx="836.8649999999999" cy="231.475" r="17.805" fill="#383838"/><circle cx="801.245" cy="267.085" r="17.805" fill="#383838"/><circle cx="836.8649999999999" cy="267.085" r="17.805" fill="#383838"/><circle cx="890.28" cy="249.27999999999997" r="35.61" fill="#383838"/><circle cx="961.5" cy="249.27999999999997" r="35.61" fill="#383838"/><circle cx="1032.72" cy="249.27999999999997" r="35.61" fill="#383838"/><circle cx="1103.9399999999998" cy="249.27999999999997" r="35.61" fill="#FF6500"/><rect x="0" y="284.8888888888889" width="71.22222222222223" height="71.22222222222223" fill="#ffffff"/><circle cx="17.805" cy="302.695" r="17.805" fill="#FF6500"/><circle cx="53.415" cy="302.695" r="17.805" fill="#383838"/><circle cx="17.805" cy="338.305" r="17.805" fill="#FF6500"/><circle cx="53.415" cy="338.305" r="17.805" fill="#383838"/><rect x="71.22222222222223" y="284.8888888888889" width="71.22222222222223" height="71.22222222222223" fill="#ffffff"/><circle cx="89.025" cy="302.695" r="17.805" fill="#383838"/><circle cx="124.63499999999999" cy="302.695" r="17.805" fill="#FF6500"/><circle cx="89.025" cy="338.305" r="17.805" fill="#FF6500"/><circle cx="124.63499999999999" cy="338.305" r="17.805" fill="#383838"/><circle cx="178.05" cy="320.5" r="35.61" fill="#383838"/><rect x="213.66666666666669" y="284.8888888888889" width="71.22222222222223" height="71.22222222222223" fill="#ffffff"/><circle cx="231.475" cy="302.695" r="17.805" fill="#FF6500"/><circle cx="267.085" cy="302.695" r="17.805" fill="#383838"/><circle cx="231.475" cy="338.305" r="17.805" fill="#FF6500"/><circle cx="267.085" cy="338.305" r="17.805" fill="#FF6500"/><rect x="284.8888888888889" y="284.8888888888889" width="71.22222222222223" height="71.22222222222223" fill="#ffffff"/><circle cx="302.695" cy="302.695" r="17.805" fill="#FF6500"/><circle cx="338.305" cy="302.695" r="17.805" fill="#383838"/><circle cx="302.695" cy="338.305" r="17.805" fill="#FF6500"/><circle cx="338.305" cy="338.305" r="17.805" fill="#383838"/><circle cx="391.72" cy="320.5" r="35.61" fill="#FF6500"/><circle cx="462.94" cy="320.5" r="35.61" fill="#FF6500"/><rect x="498.5555555555556" y="284.8888888888889" width="71.22222222222223" height="71.22222222222223" fill="#ffffff"/><circle cx="516.365" cy="302.695" r="17.805" fill="#FF6500"/><circle cx="551.9749999999999" cy="302.695" r="17.805" fill="#FF6500"/><circle cx="516.365" cy="338.305" r="17.805" fill="#383838"/><circle cx="551.9749999999999" cy="338.305" r="17.805" fill="#383838"/><circle cx="605.39" cy="320.5" r="35.61" fill="#383838"/><circle cx="676.61" cy="320.5" r="35.61" fill="#383838"/><rect x="712.2222222222223" y="284.8888888888889" width="71.22222222222223" height="71.22222222222223" fill="#ffffff"/><circle cx="730.025" cy="302.695" r="17.805" fill="#FF6500"/><circle cx="765.635" cy="302.695" r="17.805" fill="#383838"/><circle cx="730.025" cy="338.305" r="17.805" fill="#383838"/><circle cx="765.635" cy="338.305" r="17.805" fill="#383838"/><rect x="783.4444444444446" y="284.8888888888889" width="71.22222222222223" height="71.22222222222223" fill="#ffffff"/><circle cx="801.245" cy="302.695" r="17.805" fill="#383838"/><circle cx="836.8649999999999" cy="302.695" r="17.805" fill="#FF6500"/><circle cx="801.245" cy="338.305" r="17.805" fill="#FF6500"/><circle cx="836.8649999999999" cy="338.305" r="17.805" fill="#383838"/><rect x="854.6666666666667" y="284.8888888888889" width="71.22222222222223" height="71.22222222222223" fill="#ffffff"/><circle cx="872.4749999999999" cy="302.695" r="17.805" fill="#383838"/><circle cx="908.0849999999999" cy="302.695" r="17.805" fill="#383838"/><circle cx="872.4749999999999" cy="338.305" r="17.805" fill="#383838"/><circle cx="908.0849999999999" cy="338.305" r="17.805" fill="#FF6500"/><circle cx="961.5" cy="320.5" r="35.61" fill="#FF6500"/><rect x="997.1111111111112" y="284.8888888888889" width="71.22222222222223" height="71.22222222222223" fill="#ffffff"/><circle cx="1014.915" cy="302.695" r="17.805" fill="#383838"/><circle cx="1050.525" cy="302.695" r="17.805" fill="#383838"/><circle cx="1014.915" cy="338.305" r="17.805" fill="#383838"/><circle cx="1050.525" cy="338.305" r="17.805" fill="#383838"/><circle cx="1103.9399999999998" cy="320.5" r="35.61" fill="#FF6500"/><circle cx="35.61" cy="391.72" r="35.61" fill="#383838"/><circle cx="106.83" cy="391.72" r="35.61" fill="#FF6500"/><circle cx="178.05" cy="391.72" r="35.61" fill="#FF6500"/><circle cx="249.27999999999997" cy="391.72" r="35.61" fill="#383838"/><rect x="284.8888888888889" y="356.11111111111114" width="71.22222222222223" height="71.22222222222223" fill="#ffffff"/><circle cx="302.695" cy="373.915" r="17.805" fill="#383838"/><circle cx="338.305" cy="373.915" r="17.805" fill="#FF6500"/><circle cx="302.695" cy="409.52500000000003" r="17.805" fill="#FF6500"/><circle cx="338.305" cy="409.52500000000003" r="17.805" fill="#383838"/><circle cx="391.72" cy="391.72" r="35.61" fill="#383838"/><circle cx="462.94" cy="391.72" r="35.61" fill="#FF6500"/><rect x="498.5555555555556" y="356.11111111111114" width="71.22222222222223" height="71.22222222222223" fill="#ffffff"/><circle cx="516.365" cy="373.915" r="17.805" fill="#FF6500"/><circle cx="551.9749999999999" cy="373.915" r="17.805" fill="#383838"/><circle cx="516.365" cy="409.52500000000003" r="17.805" fill="#383838"/><circle cx="551.9749999999999" cy="409.52500000000003" r="17.805" fill="#383838"/><circle cx="605.39" cy="391.72" r="35.61" fill="#FF6500"/><rect x="641" y="356.11111111111114" width="71.22222222222223" height="71.22222222222223" fill="#ffffff"/><circle cx="658.805" cy="373.915" r="17.805" fill="#FF6500"/><circle cx="694.415" cy="373.915" r="17.805" fill="#383838"/><circle cx="658.805" cy="409.52500000000003" r="17.805" fill="#FF6500"/><circle cx="694.415" cy="409.52500000000003" r="17.805" fill="#383838"/><rect x="712.2222222222223" y="356.11111111111114" width="71.22222222222223" height="71.22222222222223" fill="#ffffff"/><circle cx="730.025" cy="373.915" r="17.805" fill="#FF6500"/><circle cx="765.635" cy="373.915" r="17.805" fill="#383838"/><circle cx="730.025" cy="409.52500000000003" r="17.805" fill="#383838"/><circle cx="765.635" cy="409.52500000000003" r="17.805" fill="#383838"/><circle cx="819.0500000000001" cy="391.72" r="35.61" fill="#FF6500"/><circle cx="890.28" cy="391.72" r="35.61" fill="#383838"/><circle cx="961.5" cy="391.72" r="35.61" fill="#FF6500"/><rect x="997.1111111111112" y="356.11111111111114" width="71.22222222222223" height="71.22222222222223" fill="#ffffff"/><circle cx="1014.915" cy="373.915" r="17.805" fill="#383838"/><circle cx="1050.525" cy="373.915" r="17.805" fill="#FF6500"/><circle cx="1014.915" cy="409.52500000000003" r="17.805" fill="#383838"/><circle cx="1050.525" cy="409.52500000000003" r="17.805" fill="#383838"/><rect x="1068.3333333333335" y="356.11111111111114" width="71.22222222222223" height="71.22222222222223" fill="#ffffff"/><circle cx="1086.135" cy="373.915" r="17.805" fill="#FF6500"/><circle cx="1121.7450000000001" cy="373.915" r="17.805" fill="#FF6500"/><circle cx="1086.135" cy="409.52500000000003" r="17.805" fill="#383838"/><circle cx="1121.7450000000001" cy="409.52500000000003" r="17.805" fill="#383838"/><rect x="0" y="427.33333333333337" width="71.22222222222223" height="71.22222222222223" fill="#ffffff"/><circle cx="17.805" cy="445.135" r="17.805" fill="#383838"/><circle cx="53.415" cy="445.135" r="17.805" fill="#FF6500"/><circle cx="17.805" cy="480.745" r="17.805" fill="#FF6500"/><circle cx="53.415" cy="480.745" r="17.805" fill="#383838"/><rect x="71.22222222222223" y="427.33333333333337" width="71.22222222222223" height="71.22222222222223" fill="#ffffff"/><circle cx="89.025" cy="445.135" r="17.805" fill="#383838"/><circle cx="124.63499999999999" cy="445.135" r="17.805" fill="#383838"/><circle cx="89.025" cy="480.745" r="17.805" fill="#FF6500"/><circle cx="124.63499999999999" cy="480.745" r="17.805" fill="#383838"/><circle cx="178.05" cy="462.94" r="35.61" fill="#FF6500"/><circle cx="249.27999999999997" cy="462.94" r="35.61" fill="#FF6500"/><rect x="284.8888888888889" y="427.33333333333337" width="71.22222222222223" height="71.22222222222223" fill="#ffffff"/><circle cx="302.695" cy="445.135" r="17.805" fill="#FF6500"/><circle cx="338.305" cy="445.135" r="17.805" fill="#FF6500"/><circle cx="302.695" cy="480.745" r="17.805" fill="#FF6500"/><circle cx="338.305" cy="480.745" r="17.805" fill="#383838"/><circle cx="391.72" cy="462.94" r="35.61" fill="#383838"/><circle cx="462.94" cy="462.94" r="35.61" fill="#FF6500"/><circle cx="534.17" cy="462.94" r="35.61" fill="#FF6500"/><circle cx="605.39" cy="462.94" r="35.61" fill="#383838"/><rect x="641" y="427.33333333333337" width="71.22222222222223" height="71.22222222222223" fill="#ffffff"/><circle cx="658.805" cy="445.135" r="17.805" fill="#383838"/><circle cx="694.415" cy="445.135" r="17.805" fill="#383838"/><circle cx="658.805" cy="480.745" r="17.805" fill="#FF6500"/><circle cx="694.415" cy="480.745" r="17.805" fill="#FF6500"/><rect x="712.2222222222223" y="427.33333333333337" width="71.22222222222223" height="71.22222222222223" fill="#ffffff"/><circle cx="730.025" cy="445.135" r="17.805" fill="#383838"/><circle cx="765.635" cy="445.135" r="17.805" fill="#383838"/><circle cx="730.025" cy="480.745" r="17.805" fill="#FF6500"/><circle cx="765.635" cy="480.745" r="17.805" fill="#383838"/><circle cx="819.0500000000001" cy="462.94" r="35.61" fill="#383838"/><circle cx="890.28" cy="462.94" r="35.61" fill="#383838"/><circle cx="961.5" cy="462.94" r="35.61" fill="#383838"/><rect x="997.1111111111112" y="427.33333333333337" width="71.22222222222223" height="71.22222222222223" fill="#ffffff"/><circle cx="1014.915" cy="445.135" r="17.805" fill="#FF6500"/><circle cx="1050.525" cy="445.135" r="17.805" fill="#383838"/><circle cx="1014.915" cy="480.745" r="17.805" fill="#FF6500"/><circle cx="1050.525" cy="480.745" r="17.805" fill="#FF6500"/><rect x="1068.3333333333335" y="427.33333333333337" width="71.22222222222223" height="71.22222222222223" fill="#ffffff"/><circle cx="1086.135" cy="445.135" r="17.805" fill="#383838"/><circle cx="1121.7450000000001" cy="445.135" r="17.805" fill="#FF6500"/><circle cx="1086.135" cy="480.745" r="17.805" fill="#383838"/><circle cx="1121.7450000000001" cy="480.745" r="17.805" fill="#383838"/><rect x="0" y="498.5555555555556" width="71.22222222222223" height="71.22222222222223" fill="#ffffff"/><circle cx="17.805" cy="516.365" r="17.805" fill="#FF6500"/><circle cx="53.415" cy="516.365" r="17.805" fill="#FF6500"/><circle cx="17.805" cy="551.9749999999999" r="17.805" fill="#383838"/><circle cx="53.415" cy="551.9749999999999" r="17.805" fill="#FF6500"/><circle cx="106.83" cy="534.17" r="35.61" fill="#383838"/><circle cx="178.05" cy="534.17" r="35.61" fill="#383838"/><circle cx="249.27999999999997" cy="534.17" r="35.61" fill="#FF6500"/><rect x="284.8888888888889" y="498.5555555555556" width="71.22222222222223" height="71.22222222222223" fill="#ffffff"/><circle cx="302.695" cy="516.365" r="17.805" fill="#FF6500"/><circle cx="338.305" cy="516.365" r="17.805" fill="#FF6500"/><circle cx="302.695" cy="551.9749999999999" r="17.805" fill="#383838"/><circle cx="338.305" cy="551.9749999999999" r="17.805" fill="#FF6500"/><circle cx="391.72" cy="534.17" r="35.61" fill="#FF6500"/><circle cx="462.94" cy="534.17" r="35.61" fill="#FF6500"/><circle cx="534.17" cy="534.17" r="35.61" fill="#383838"/><rect x="569.7777777777778" y="498.5555555555556" width="71.22222222222223" height="71.22222222222223" fill="#ffffff"/><circle cx="587.5849999999999" cy="516.365" r="17.805" fill="#383838"/><circle cx="623.1949999999999" cy="516.365" r="17.805" fill="#FF6500"/><circle cx="587.5849999999999" cy="551.9749999999999" r="17.805" fill="#FF6500"/><circle cx="623.1949999999999" cy="551.9749999999999" r="17.805" fill="#383838"/><circle cx="676.61" cy="534.17" r="35.61" fill="#FF6500"/><rect x="712.2222222222223" y="498.5555555555556" width="71.22222222222223" height="71.22222222222223" fill="#ffffff"/><circle cx="730.025" cy="516.365" r="17.805" fill="#383838"/><circle cx="765.635" cy="516.365" r="17.805" fill="#FF6500"/><circle cx="730.025" cy="551.9749999999999" r="17.805" fill="#383838"/><circle cx="765.635" cy="551.9749999999999" r="17.805" fill="#383838"/><circle cx="819.0500000000001" cy="534.17" r="35.61" fill="#FF6500"/><circle cx="890.28" cy="534.17" r="35.61" fill="#383838"/><circle cx="961.5" cy="534.17" r="35.61" fill="#FF6500"/><rect x="997.1111111111112" y="498.5555555555556" width="71.22222222222223" height="71.22222222222223" fill="#ffffff"/><circle cx="1014.915" cy="516.365" r="17.805" fill="#383838"/><circle cx="1050.525" cy="516.365" r="17.805" fill="#FF6500"/><circle cx="1014.915" cy="551.9749999999999" r="17.805" fill="#FF6500"/><circle cx="1050.525" cy="551.9749999999999" r="17.805" fill="#FF6500"/><circle cx="1103.9399999999998" cy="534.17" r="35.61" fill="#FF6500"/><circle cx="35.61" cy="605.39" r="35.61" fill="#FF6500"/><circle cx="106.83" cy="605.39" r="35.61" fill="#FF6500"/><rect x="142.44444444444446" y="569.7777777777778" width="71.22222222222223" height="71.22222222222223" fill="#ffffff"/><circle cx="160.245" cy="587.5849999999999" r="17.805" fill="#FF6500"/><circle cx="195.865" cy="587.5849999999999" r="17.805" fill="#FF6500"/><circle cx="160.245" cy="623.1949999999999" r="17.805" fill="#383838"/><circle cx="195.865" cy="623.1949999999999" r="17.805" fill="#FF6500"/><rect x="213.66666666666669" y="569.7777777777778" width="71.22222222222223" height="71.22222222222223" fill="#ffffff"/><circle cx="231.475" cy="587.5849999999999" r="17.805" fill="#383838"/><circle cx="267.085" cy="587.5849999999999" r="17.805" fill="#383838"/><circle cx="231.475" cy="623.1949999999999" r="17.805" fill="#383838"/><circle cx="267.085" cy="623.1949999999999" r="17.805" fill="#FF6500"/><rect x="284.8888888888889" y="569.7777777777778" width="71.22222222222223" height="71.22222222222223" fill="#ffffff"/><circle cx="302.695" cy="587.5849999999999" r="17.805" fill="#383838"/><circle cx="338.305" cy="587.5849999999999" r="17.805" fill="#383838"/><circle cx="302.695" cy="623.1949999999999" r="17.805" fill="#FF6500"/><circle cx="338.305" cy="623.1949999999999" r="17.805" fill="#383838"/><circle cx="391.72" cy="605.39" r="35.61" fill="#FF6500"/><rect x="427.33333333333337" y="569.7777777777778" width="71.22222222222223" height="71.22222222222223" fill="#ffffff"/><circle cx="445.135" cy="587.5849999999999" r="17.805" fill="#383838"/><circle cx="480.745" cy="587.5849999999999" r="17.805" fill="#FF6500"/><circle cx="445.135" cy="623.1949999999999" r="17.805" fill="#383838"/><circle cx="480.745" cy="623.1949999999999" r="17.805" fill="#383838"/><rect x="498.5555555555556" y="569.7777777777778" width="71.22222222222223" height="71.22222222222223" fill="#ffffff"/><circle cx="516.365" cy="587.5849999999999" r="17.805" fill="#383838"/><circle cx="551.9749999999999" cy="587.5849999999999" r="17.805" fill="#383838"/><circle cx="516.365" cy="623.1949999999999" r="17.805" fill="#FF6500"/><circle cx="551.9749999999999" cy="623.1949999999999" r="17.805" fill="#383838"/><circle cx="605.39" cy="605.39" r="35.61" fill="#FF6500"/><circle cx="676.61" cy="605.39" r="35.61" fill="#FF6500"/><rect x="712.2222222222223" y="569.7777777777778" width="71.22222222222223" height="71.22222222222223" fill="#ffffff"/><circle cx="730.025" cy="587.5849999999999" r="17.805" fill="#FF6500"/><circle cx="765.635" cy="587.5849999999999" r="17.805" fill="#383838"/><circle cx="730.025" cy="623.1949999999999" r="17.805" fill="#383838"/><circle cx="765.635" cy="623.1949999999999" r="17.805" fill="#FF6500"/><rect x="783.4444444444446" y="569.7777777777778" width="71.22222222222223" height="71.22222222222223" fill="#ffffff"/><circle cx="801.245" cy="587.5849999999999" r="17.805" fill="#FF6500"/><circle cx="836.8649999999999" cy="587.5849999999999" r="17.805" fill="#383838"/><circle cx="801.245" cy="623.1949999999999" r="17.805" fill="#383838"/><circle cx="836.8649999999999" cy="623.1949999999999" r="17.805" fill="#FF6500"/><rect x="854.6666666666667" y="569.7777777777778" width="71.22222222222223" height="71.22222222222223" fill="#ffffff"/><circle cx="872.4749999999999" cy="587.5849999999999" r="17.805" fill="#383838"/><circle cx="908.0849999999999" cy="587.5849999999999" r="17.805" fill="#383838"/><circle cx="872.4749999999999" cy="623.1949999999999" r="17.805" fill="#383838"/><circle cx="908.0849999999999" cy="623.1949999999999" r="17.805" fill="#FF6500"/><circle cx="961.5" cy="605.39" r="35.61" fill="#383838"/><circle cx="1032.72" cy="605.39" r="35.61" fill="#383838"/><circle cx="1103.9399999999998" cy="605.39" r="35.61" fill="#FF6500"/></g></svg>